<?xml version="1.0" encoding="UTF-8" standalone="no"?><!DOCTYPE svg PUBLIC "-//W3C//DTD SVG 1.1//EN" "http://www.w3.org/Graphics/SVG/1.1/DTD/svg11.dtd"><svg width="100%" height="100%" viewBox="0 0 4267 3200" version="1.1" xmlns="http://www.w3.org/2000/svg" xmlns:xlink="http://www.w3.org/1999/xlink" xml:space="preserve" xmlns:serif="http://www.serif.com/" style="fill-rule:evenodd;clip-rule:evenodd;stroke-linecap:round;stroke-linejoin:round;stroke-miterlimit:1.5;"><g id="SagiriLogo"><g><path d="M1189.96,1253.63l93.564,-1.318l0,54.03c-10.543,-1.757 -22.842,-2.636 -36.899,-2.636c-14.056,0 -29.87,0.879 -47.441,2.636c0,67.647 -32.505,136.172 -97.517,205.576c-65.011,69.404 -143.42,125.85 -235.227,169.337c-91.806,43.488 -177.243,65.231 -256.311,65.231c-41.291,0 -74.895,-10.542 -100.812,-31.627c-25.917,-21.085 -38.875,-48.758 -38.875,-83.021c0,-50.955 33.823,-104.106 101.47,-159.454c67.647,-55.347 146.715,-101.031 237.204,-137.051c90.489,-36.02 172.192,-57.104 245.111,-63.254c-8.786,-13.178 -22.403,-24.599 -40.852,-34.263c-18.449,-9.664 -56.226,-24.818 -113.331,-45.464c-57.104,-20.645 -97.517,-43.487 -121.237,-68.525c-23.721,-25.039 -35.581,-60.4 -35.581,-106.083c0,-45.684 24.599,-97.957 73.797,-156.818c49.198,-58.862 107.401,-108.279 174.608,-148.253c67.208,-39.973 126.289,-59.959 177.244,-59.959c22.842,0 41.73,8.126 56.665,24.379c14.935,16.253 22.403,36.239 22.403,59.96c0,38.655 -23.281,87.194 -69.843,145.616c-46.563,58.423 -98.396,103.008 -155.501,133.757l-31.627,-44.805c34.263,-17.571 64.353,-45.025 90.269,-82.363c25.917,-37.337 38.876,-69.623 38.876,-96.858c0,-27.234 -14.496,-40.851 -43.488,-40.851c-41.291,0 -88.512,25.697 -141.663,77.091c-53.151,51.394 -79.727,99.493 -79.727,144.299c0,30.748 7.907,54.908 23.72,72.479c15.814,17.57 55.787,39.314 119.92,65.231c64.133,25.916 109.817,48.758 137.051,68.525c27.235,19.767 45.245,44.586 54.03,74.456Zm-587.738,343.945c0,42.17 34.263,63.254 102.788,63.254c37.777,0 86.755,-13.837 146.935,-41.51c60.179,-27.674 113.33,-66.33 159.453,-115.967c46.123,-49.637 69.185,-100.372 69.185,-152.205c0,-6.15 -1.318,-15.375 -3.954,-27.674c-120.359,11.421 -229.516,45.244 -327.473,101.47c-97.956,56.226 -146.934,113.77 -146.934,172.632Z" style="fill:#fff;fill-rule:nonzero;"/><path d="M1901.57,1359.06l30.309,22.402c-12.299,26.356 -34.921,51.394 -67.866,75.115c-32.945,23.72 -63.035,35.58 -90.269,35.58c-51.834,0 -77.751,-27.234 -77.751,-81.703c0,-25.478 6.589,-55.787 19.767,-90.928l-48.758,50.076c-47.441,48.319 -88.512,80.825 -123.214,97.517c-34.702,16.692 -68.745,25.038 -102.13,25.038c-33.384,0 -58.642,-9.444 -75.773,-28.333c-17.131,-18.888 -25.697,-45.024 -25.697,-78.409c0,-61.497 23.72,-122.335 71.161,-182.515c47.441,-60.179 108.059,-109.157 181.856,-146.934c73.797,-37.777 147.594,-57.105 221.39,-57.983l2.636,43.487l-55.348,11.86c-79.946,17.571 -150.448,52.712 -211.506,105.424c-61.058,52.712 -91.587,105.204 -91.587,157.477c0,52.273 21.084,78.409 63.254,78.409c39.534,0 88.293,-27.674 146.276,-83.021c57.983,-55.348 106.302,-120.359 144.957,-195.034l55.348,32.945c-54.469,109.816 -81.704,179.659 -81.704,209.53c0,12.299 4.174,22.622 12.52,30.968c8.346,8.346 16.692,12.519 25.038,12.519c8.346,0 13.837,-0.439 16.472,-1.318c2.636,-0.878 5.271,-1.977 7.907,-3.294c2.636,-1.318 5.93,-3.295 9.883,-5.931c3.954,-2.635 7.468,-5.271 10.543,-7.906c3.075,-2.636 8.126,-6.589 15.155,-11.86c7.028,-5.272 12.738,-9.664 17.131,-13.178Z" style="fill:#fff;fill-rule:nonzero;"/><path d="M2522.25,1444.71l1.318,31.628c-8.786,5.271 -48.759,21.084 -119.92,47.44c-28.113,167.8 -69.404,289.037 -123.873,363.713c-54.469,74.675 -121.237,112.012 -200.305,112.012c-36.899,0 -66.329,-11.86 -88.293,-35.58c-21.963,-23.72 -32.945,-54.469 -32.945,-92.246c0,-75.554 34.702,-146.056 104.106,-211.507c69.404,-65.45 162.09,-117.064 278.056,-154.841c13.178,-58.862 36.898,-141.883 71.161,-249.064c-58.862,89.611 -112.233,150.229 -160.113,181.856c-47.88,31.628 -91.147,47.441 -129.803,47.441c-38.655,0 -67.866,-10.542 -87.633,-31.627c-19.767,-21.085 -29.651,-49.198 -29.651,-84.339c0,-57.983 24.16,-117.065 72.479,-177.244c48.319,-60.179 109.158,-109.377 182.515,-147.593c73.358,-38.217 144.299,-57.325 212.825,-57.325l10.542,46.123c-97.517,10.543 -181.197,44.805 -251.041,102.789c-69.843,57.983 -104.765,113.77 -104.765,167.36c0,22.842 7.029,41.73 21.085,56.665c14.057,14.935 31.188,22.403 51.394,22.403c29.87,0 75.115,-31.627 135.734,-94.882c60.618,-63.254 103.227,-117.284 127.826,-162.089l48.759,27.674c-48.32,129.144 -81.704,238.082 -100.153,326.814l110.695,-35.581Zm-189.763,100.153c-76.432,35.141 -139.687,77.311 -189.763,126.509c-50.076,49.197 -75.114,94.003 -75.114,134.415c0,21.085 6.149,38.216 18.449,51.394c12.299,13.178 27.673,19.767 46.123,19.767c36.898,0 73.357,-25.916 109.377,-77.75c36.02,-51.833 66.329,-136.612 90.928,-254.335Z" style="fill:#fff;fill-rule:nonzero;"/><path d="M2814.8,933.41c-49.198,0 -73.797,-19.767 -73.797,-59.301c0,-21.964 6.15,-40.413 18.45,-55.348c12.299,-14.935 28.113,-22.402 47.44,-22.402c19.328,0 35.142,5.71 47.441,17.131c12.3,11.421 18.449,26.356 18.449,44.805c0,18.449 -5.271,35.581 -15.813,51.394c-10.543,15.814 -24.599,23.721 -42.17,23.721Zm-17.131,388.75l26.356,22.403c-21.085,40.412 -48.978,74.895 -83.68,103.447c-34.702,28.552 -66.11,42.828 -94.223,42.828c-49.198,0 -73.797,-34.262 -73.797,-102.788c0,-85.218 35.142,-196.352 105.424,-333.403c15.814,-29.87 25.038,-47.441 27.674,-52.712l56.665,34.263c-18.449,33.384 -41.071,86.535 -67.866,159.454c-26.796,72.918 -40.193,119.7 -40.193,140.345c0,20.646 4.392,35.361 13.178,44.146c8.785,8.786 19.327,13.178 31.627,13.178c23.72,0 56.665,-23.72 98.835,-71.161Z" style="fill:#fff;fill-rule:nonzero;"/><path d="M3268.12,1025.66c21.963,0 39.973,7.467 54.03,22.402c14.056,14.935 21.084,34.263 21.084,57.983c0,47.441 -27.234,97.517 -81.703,150.229l-31.627,-25.038c12.299,-27.234 18.449,-47.001 18.449,-59.301c0,-23.72 -13.178,-35.58 -39.534,-35.58c-26.356,0 -51.394,16.692 -75.115,50.076c-23.72,33.384 -51.613,84.998 -83.68,154.841c-32.066,69.844 -56.446,119.261 -73.138,148.253l-75.114,-32.945c48.319,-109.817 75.993,-174.389 83.021,-193.717c23.721,-68.525 35.581,-155.5 35.581,-260.924l73.796,-19.767c-2.635,57.105 -6.589,101.251 -11.86,132.439c-5.271,31.188 -18.01,81.923 -38.216,152.206c88.732,-160.772 163.407,-241.157 224.026,-241.157Z" style="fill:#fff;fill-rule:nonzero;"/><path d="M3618.66,1322.16l26.356,22.403c-21.085,40.412 -48.978,74.895 -83.68,103.447c-34.702,28.552 -66.11,42.828 -94.223,42.828c-49.197,0 -73.796,-34.262 -73.796,-102.788c0,-85.218 35.141,-196.352 105.423,-333.403c15.814,-29.87 25.039,-47.441 27.674,-52.712l56.666,34.263c-18.45,33.384 -41.072,86.535 -67.867,159.454c-26.795,72.918 -40.193,119.7 -40.193,140.345c0,20.646 4.393,35.361 13.178,44.146c8.785,8.786 19.328,13.178 31.627,13.178c23.721,0 56.666,-23.72 98.835,-71.161Z" style="fill:#fff;fill-rule:nonzero;"/></g><path d="M3647.1,771.137c0,0 -3.122,-125.883 -48.961,-96.944c-86.726,54.75 -9.674,250.088 7.344,238.182c25.146,-17.59 73.897,-56.803 123.86,-76.49c63.144,-24.88 78.437,-55.696 58.98,-92.802c-0.6,-1.145 -8.341,-15.991 -58.019,-20.851c-45.079,-4.409 -83.204,48.905 -83.204,48.905Z" style="fill:none;stroke:#fff;stroke-width:25.52px;"/></g></svg>